 <svg version="1.0" xmlns="http://www.w3.org/2000/svg" width="700.000000pt" height="700.000000pt" viewBox="0 0 700.000000 700.000000" preserveAspectRatio="xMidYMid meet">
<metadata>
Created by potrace 1.12, written by Peter Selinger 2001-2015
</metadata>
<g transform="translate(0.000000,700.000000) scale(0.100000,-0.100000)" fill="#000000" stroke="none">
<path d="M2781 5371 c-13 -8 -10 -18 13 -61 32 -59 32 -110 0 -176 -21 -41
-21 -41 -109 -80 -199 -87 -432 -307 -547 -513 -139 -253 -127 -582 33 -902
45 -90 59 -105 88 -89 25 13 25 11 6 136 -26 171 -18 302 21 343 12 13 19 12
53 -7 92 -52 199 -75 242 -52 34 19 23 48 -31 81 -56 34 -107 99 -147 185 -22
48 -27 74 -28 141 0 73 3 84 24 107 49 52 129 56 264 13 48 -15 67 -26 67 -38
0 -10 -30 -45 -66 -78 -93 -85 -76 -111 71 -111 86 0 181 26 263 74 54 31 60
33 117 25 149 -19 382 -7 518 27 136 34 323 111 333 138 11 29 -19 145 -61
231 -97 201 -246 310 -508 371 -70 16 -79 22 -102 56 -30 46 -113 109 -185
142 -79 36 -293 60 -329 37z m274 -75 c81 -33 191 -109 181 -125 -3 -4 -33 -6
-68 -4 -70 2 -249 -22 -278 -37 -10 -6 -20 -10 -22 -10 -2 0 -3 46 -3 101 l0
102 75 -6 c41 -3 93 -13 115 -21z m330 -210 c90 -22 165 -50 238 -88 71 -38
190 -161 222 -230 31 -67 59 -173 52 -193 -14 -34 -239 -111 -392 -134 -171
-25 -187 -24 -232 8 -58 42 -111 115 -130 180 -14 47 -14 67 -4 124 6 38 21
85 33 106 24 42 19 71 -12 71 -16 0 -28 -14 -48 -57 -22 -47 -27 -76 -30 -151
-5 -113 10 -159 74 -238 24 -29 40 -55 36 -57 -4 -2 -54 4 -111 13 -100 16
-104 18 -136 56 -48 56 -74 164 -56 234 7 27 10 54 6 60 -10 17 -44 11 -55 -9
-15 -29 -12 -160 6 -220 8 -29 13 -55 11 -58 -6 -5 -42 5 -127 36 -48 17 -56
24 -62 53 -3 18 -4 36 -2 40 8 13 -6 46 -21 52 -23 8 -45 -22 -45 -62 l0 -37
-74 3 c-130 6 -202 -48 -221 -165 -15 -92 38 -237 121 -331 25 -29 44 -55 41
-58 -2 -3 -38 11 -79 31 -41 19 -85 35 -97 35 -60 0 -100 -98 -102 -252 -1
-54 -5 -98 -8 -98 -17 0 -66 169 -81 280 -32 230 21 417 175 621 187 250 433
397 755 453 55 10 288 -2 355 -18z m-500 -663 c28 -8 56 -17 63 -19 25 -7 11
-22 -33 -34 -25 -7 -48 -17 -51 -21 -3 -5 -21 -9 -40 -9 -20 0 -44 -5 -54 -10
-11 -6 -31 -8 -46 -4 l-26 7 35 36 c19 20 40 46 46 59 9 17 18 21 34 16 12 -3
45 -13 72 -21z"></path>
<path d="M3463 4871 c-74 -34 -95 -111 -44 -162 24 -24 38 -29 76 -29 40 0 52
5 82 35 31 31 34 39 31 82 -3 41 -7 50 -37 70 -41 28 -54 28 -108 4z m78 -51
c44 -24 9 -90 -47 -90 -28 0 -35 4 -40 27 -6 21 -2 31 20 50 30 26 39 27 67
13z"></path>
<path d="M4723 5004 c-3 -8 2 -81 12 -161 15 -122 16 -156 6 -213 -7 -38 -19
-77 -26 -87 -13 -17 -16 -17 -77 14 -76 38 -186 60 -217 44 -35 -19 -27 -57
17 -80 118 -61 220 -283 181 -395 -22 -61 -57 -81 -142 -80 -74 0 -207 38
-214 60 -4 12 66 87 111 120 37 27 30 49 -21 63 -103 29 -254 -2 -373 -75 -33
-20 -41 -21 -125 -12 -251 27 -557 -22 -756 -122 -79 -40 -80 -43 -63 -124 30
-142 129 -304 236 -385 91 -68 227 -124 355 -146 35 -5 50 -15 80 -54 91 -115
241 -181 414 -181 108 0 122 11 84 65 -30 45 -33 108 -9 170 14 37 23 44 112
87 131 63 207 115 308 211 158 149 274 330 314 491 23 90 27 281 9 382 -16 92
-56 210 -109 322 -43 91 -52 102 -75 102 -14 0 -28 -7 -32 -16z m112 -239 c9
-33 26 -91 37 -130 29 -101 35 -276 14 -368 -38 -162 -116 -300 -249 -443
-267 -286 -646 -413 -1007 -338 -182 38 -269 82 -377 190 -82 82 -117 138
-146 229 -29 95 -29 94 14 115 129 66 392 130 534 130 42 0 50 -5 105 -57 51
-50 61 -68 80 -131 26 -85 23 -150 -10 -227 -26 -60 -26 -95 -1 -95 10 0 26
10 34 23 23 35 57 154 57 198 0 65 -47 196 -86 237 -18 20 -31 39 -26 43 10
10 202 -18 218 -32 52 -43 88 -166 78 -265 -6 -54 -4 -65 10 -70 9 -3 23 -1
31 6 24 20 20 169 -6 243 -11 32 -19 60 -17 62 5 4 180 -64 194 -76 7 -5 12
-29 12 -53 -1 -50 6 -66 32 -66 23 0 32 24 24 65 l-6 33 94 -2 c117 -1 157 19
194 98 29 63 30 100 4 196 -25 92 -61 163 -108 212 -20 21 -33 40 -30 44 4 3
41 -11 84 -31 94 -45 117 -41 154 25 23 42 25 54 25 182 0 151 9 163 40 53z
m-545 -532 c0 -5 -23 -30 -51 -57 -49 -48 -51 -49 -87 -37 -20 6 -52 14 -71
19 -19 4 -36 12 -38 18 -3 9 77 47 122 57 34 8 125 7 125 0z m-156 -820 c-4
-16 -11 -33 -16 -39 -4 -6 -6 -18 -4 -25 2 -8 7 -33 10 -56 l6 -43 -43 0 c-77
0 -156 26 -259 86 -34 20 -69 54 -64 63 3 4 65 11 138 14 73 4 149 11 168 16
63 16 71 14 64 -16z"></path>
<path d="M3466 3890 c-62 -19 -95 -76 -81 -140 17 -79 159 -79 200 0 31 59 15
113 -40 136 -38 16 -39 16 -79 4z m72 -87 c3 -25 -2 -35 -22 -48 -55 -36 -103
10 -64 60 16 20 28 25 52 23 27 -3 31 -7 34 -35z"></path>
<path d="M1690 2882 c-56 -22 -90 -69 -90 -126 0 -68 27 -99 127 -146 105 -50
123 -65 123 -100 0 -79 -137 -90 -182 -13 -19 31 -25 34 -51 29 -16 -3 -33 -6
-38 -6 -16 0 -9 -42 11 -76 60 -97 256 -104 323 -12 11 14 22 48 24 75 7 69
-23 108 -112 151 -135 63 -143 70 -132 114 13 49 84 53 132 8 20 -19 21 -19
53 1 38 25 38 28 12 57 -50 53 -131 71 -200 44z"></path>
<path d="M3400 2883 c0 -5 -1 -120 -1 -258 l0 -250 40 -3 41 -3 0 52 c0 44 5
58 27 81 15 15 30 28 34 28 4 0 30 -36 58 -80 l51 -80 50 0 c39 0 49 3 43 13
-4 7 -36 54 -70 104 -35 51 -63 98 -63 105 0 7 28 41 62 75 l62 63 -56 0 -57
0 -62 -69 c-35 -38 -67 -67 -71 -65 -4 3 -8 70 -8 150 l0 144 -40 0 c-22 0
-40 -3 -40 -7z"></path>
<path d="M3794 2876 c-3 -8 -4 -25 -2 -38 2 -19 10 -23 46 -26 l42 -3 0 40 0
41 -40 0 c-26 0 -43 -5 -46 -14z"></path>
<path d="M3964 2876 c-3 -8 -4 -27 -2 -43 l3 -28 128 -1 c70 -1 130 -4 132 -6
2 -2 -59 -84 -136 -182 -98 -125 -142 -189 -146 -212 l-6 -34 212 0 211 0 0
40 0 40 -140 0 c-77 0 -140 3 -140 6 0 7 89 122 207 269 61 76 73 96 73 128
l0 37 -195 0 c-160 0 -197 -3 -201 -14z"></path>
<path d="M4869 2855 c-28 -21 -35 -33 -39 -73 -5 -43 -8 -47 -33 -50 -25 -3
-28 -7 -25 -35 2 -27 8 -33 31 -35 l27 -3 0 -115 c0 -114 0 -116 29 -144 34
-34 68 -45 116 -36 33 6 35 9 35 44 0 38 0 38 -36 34 -24 -3 -39 0 -45 9 -5 8
-9 58 -9 112 l0 97 45 0 c45 0 45 0 45 34 0 34 -1 35 -42 38 l-43 3 -3 73 c-2
39 -6 72 -10 72 -5 0 -24 -11 -43 -25z"></path>
<path d="M2065 2726 c-16 -7 -40 -25 -53 -39 l-23 -25 31 -22 c31 -22 31 -22
53 -3 51 47 136 29 137 -28 0 -13 -16 -17 -79 -22 -93 -7 -127 -21 -147 -58
-19 -38 -18 -68 6 -107 39 -64 134 -79 200 -32 l31 22 6 -21 c4 -16 13 -21 39
-21 l34 0 0 128 c0 140 -11 178 -62 216 -35 25 -130 32 -173 12z m145 -219 c0
-24 -30 -56 -65 -67 -30 -10 -40 -9 -60 4 -29 19 -32 38 -9 60 20 20 134 23
134 3z"></path>
<path d="M2505 2724 c-19 -10 -31 -11 -33 -5 -2 6 -24 11 -48 11 l-44 0 0
-180 0 -180 45 0 45 0 0 104 c0 146 18 186 84 186 46 0 56 -31 56 -167 l0
-123 45 0 45 0 0 110 c0 145 17 180 85 180 44 0 55 -33 55 -167 l0 -123 45 0
45 0 0 128 c0 148 -16 199 -71 227 -43 23 -121 16 -152 -14 -29 -27 -33 -26
-69 4 -35 29 -87 33 -133 9z"></path>
<path d="M3075 2726 c-16 -7 -40 -24 -52 -38 l-23 -24 31 -23 c27 -20 32 -21
47 -8 55 50 141 35 142 -25 0 -14 -9 -18 -42 -19 -91 -1 -140 -15 -170 -48
-94 -105 77 -237 194 -151 l29 22 6 -21 c4 -16 13 -21 39 -21 l34 0 0 128 c0
140 -11 178 -62 216 -35 25 -130 32 -173 12z m143 -227 c-3 -25 -41 -55 -80
-64 -49 -12 -84 50 -44 77 6 4 37 8 69 8 54 0 58 -2 55 -21z"></path>
<path d="M4505 2726 c-98 -44 -134 -191 -70 -288 28 -42 65 -65 122 -74 63
-10 172 29 173 62 0 7 -12 19 -26 29 -24 15 -28 15 -61 0 -44 -21 -101 -14
-125 16 -36 44 -27 48 105 51 l122 3 3 40 c3 48 -30 120 -70 149 -35 25 -130
32 -173 12z m138 -87 c34 -41 24 -49 -63 -49 -83 0 -89 4 -69 41 23 43 99 47
132 8z"></path>
<path d="M3797 2723 c-4 -3 -7 -84 -7 -180 l0 -173 45 0 45 0 0 180 0 180 -38
0 c-21 0 -42 -3 -45 -7z"></path>
<path d="M5072 2588 c3 -160 14 -189 75 -214 44 -19 72 -18 118 6 47 24 45 24
45 5 0 -11 12 -15 45 -15 l45 0 0 180 0 180 -45 0 -45 0 0 -111 c0 -129 -13
-165 -66 -175 -72 -13 -94 32 -94 189 l0 97 -41 0 -41 0 4 -142z"></path>
</g>
</svg>